<svg width="23" height="19" viewBox="0 0 23 19" fill="none" xmlns="http://www.w3.org/2000/svg">
<path fill-rule="evenodd" clip-rule="evenodd" d="M0 1.5C0 0.671573 0.671573 0 1.5 0H21.5C22.3284 0 23 0.671573 23 1.5C23 2.32843 22.3284 3 21.5 3H1.5C0.671573 3 0 2.32843 0 1.5ZM0 9.5C0 8.67157 0.671573 8 1.5 8H21.5C22.3284 8 23 8.67157 23 9.5C23 10.3284 22.3284 11 21.5 11H1.5C0.671573 11 0 10.3284 0 9.5ZM1.5 16C0.671573 16 0 16.6716 0 17.5C0 18.3284 0.671573 19 1.5 19H21.5C22.3284 19 23 18.3284 23 17.5C23 16.6716 22.3284 16 21.5 16H1.5Z" fill="#4D82C1"/>
</svg>
