<svg width="18" height="18" viewBox="0 0 18 18" fill="none" xmlns="http://www.w3.org/2000/svg">
<path fill-rule="evenodd" clip-rule="evenodd" d="M12.5962 3.40381C15.1346 5.94221 15.1346 10.0578 12.5962 12.5962C10.0578 15.1346 5.94221 15.1346 3.40381 12.5962C0.865398 10.0578 0.865398 5.94221 3.40381 3.40381C5.94221 0.865398 10.0578 0.865398 12.5962 3.40381ZM13.9974 13.2948C16.7766 10.1528 16.6631 5.34935 13.6569 2.34315C10.5327 -0.781049 5.46734 -0.781049 2.34315 2.34315C-0.781049 5.46734 -0.781049 10.5327 2.34315 13.6569C5.22726 16.541 9.76562 16.7626 12.904 14.3218L15.9749 17.4749C16.2678 17.7677 16.7426 17.7677 17.0355 17.4749C17.3284 17.182 17.3284 16.7071 17.0355 16.4142L13.9974 13.2948Z" fill="white"/>
</svg>
