<svg width="16" height="12" viewBox="0 0 16 12" fill="none" xmlns="http://www.w3.org/2000/svg">
<path d="M13.909 12C14.2523 12 14.5498 11.8866 14.8027 11.6628L10.4757 7.33564C10.3719 7.40998 10.2712 7.48227 10.1762 7.551C9.85238 7.78958 9.58957 7.97575 9.38776 8.10915C9.18598 8.24286 8.91752 8.37914 8.58239 8.51828C8.24704 8.65759 7.93463 8.72702 7.64481 8.72702H7.63632H7.62784C7.338 8.72702 7.02558 8.65762 6.69026 8.51828C6.35494 8.37914 6.08647 8.24286 5.88489 8.10915C5.68311 7.97575 5.42044 7.78961 5.09646 7.551C5.00617 7.48482 4.90605 7.4122 4.79779 7.33447L0.469971 11.6628C0.722826 11.8866 1.02049 12 1.36377 12H13.909Z" fill="#4D82C1"/>
<path d="M0.860884 4.61095C0.537099 4.39509 0.249972 4.14786 0 3.86938V10.4528L3.81379 6.63901C3.05082 6.10635 2.06776 5.4311 0.860884 4.61095Z" fill="#4D82C1"/>
<path d="M14.4205 4.61095C13.2596 5.39667 12.273 6.07307 11.4604 6.64054L15.2727 10.453V3.86938C15.0283 4.14226 14.7442 4.38932 14.4205 4.61095Z" fill="#4D82C1"/>
<path d="M13.909 0H1.36379C0.926124 0 0.589639 0.147792 0.35392 0.443072C0.118007 0.738491 0.000244141 1.10794 0.000244141 1.55102C0.000244141 1.90891 0.156521 2.29669 0.468938 2.71447C0.781354 3.13209 1.11379 3.46012 1.46608 3.69872C1.65921 3.83517 2.24162 4.24006 3.2133 4.91325C3.73784 5.27675 4.194 5.59357 4.586 5.86697C4.92013 6.09978 5.20828 6.30139 5.44619 6.46871C5.4735 6.48787 5.51645 6.51859 5.57346 6.55935C5.63488 6.60347 5.7126 6.65945 5.80849 6.72869C5.99313 6.86223 6.14653 6.97018 6.2687 7.05264C6.3907 7.13513 6.53852 7.22727 6.71194 7.32959C6.88521 7.43177 7.04864 7.50861 7.20204 7.55971C7.35546 7.61079 7.49748 7.63641 7.62814 7.63641H7.63662H7.64511C7.77574 7.63641 7.91779 7.61079 8.07124 7.55971C8.2246 7.50861 8.3879 7.43194 8.56131 7.32959C8.73456 7.22727 8.88218 7.13494 9.00458 7.05264C9.12675 6.97018 9.28014 6.86226 9.46481 6.72869C9.5605 6.65945 9.63823 6.60344 9.69965 6.55949C9.75668 6.51856 9.79961 6.48803 9.82709 6.46871C10.0124 6.33974 10.3012 6.13896 10.6896 5.86933C11.3961 5.3784 12.4367 4.65582 13.8157 3.69872C14.2304 3.40904 14.5769 3.05947 14.8554 2.6505C15.1334 2.24154 15.2728 1.81255 15.2728 1.36368C15.2728 0.988657 15.1376 0.667756 14.868 0.400482C14.598 0.13354 14.2783 0 13.909 0Z" fill="#4D82C1"/>
</svg>
