<svg width="12" height="10" viewBox="0 0 12 10" fill="none" xmlns="http://www.w3.org/2000/svg">
<path d="M11.8091 1.16331C11.5425 1.28175 11.2658 1.3752 10.9818 1.44285C11.2947 1.14493 11.53 0.772306 11.6627 0.356388C11.7006 0.237651 11.5719 0.134975 11.4648 0.19855C11.0698 0.433328 10.6442 0.609456 10.1999 0.722097C10.1741 0.728633 10.1475 0.731945 10.1209 0.731945C10.0399 0.731945 9.96126 0.701843 9.89938 0.647208C9.4267 0.229854 8.81877 0 8.1876 0C7.91448 0 7.63873 0.042647 7.36799 0.126769C6.52912 0.387428 5.88187 1.08065 5.67879 1.93594C5.6026 2.25674 5.58198 2.57784 5.61744 2.89029C5.6215 2.9262 5.60456 2.95126 5.59412 2.96301C5.57578 2.98362 5.54977 2.99543 5.52276 2.99543C5.51975 2.99543 5.51665 2.99528 5.51357 2.99499C3.67733 2.82408 2.02149 1.93781 0.851054 0.499483C0.791369 0.426118 0.676914 0.435116 0.629342 0.516864C0.400141 0.910799 0.279016 1.36136 0.279016 1.81984C0.279016 2.52247 0.560792 3.18463 1.05024 3.66735C0.844412 3.61846 0.6452 3.54146 0.460148 3.43849C0.37062 3.38866 0.260467 3.45271 0.259209 3.55529C0.246394 4.5991 0.856408 5.5279 1.77023 5.94613C1.75183 5.94657 1.73342 5.94678 1.71499 5.94678C1.57014 5.94678 1.42347 5.93277 1.27912 5.90513C1.1783 5.88584 1.0936 5.98166 1.1249 6.07958C1.42151 7.0073 2.21883 7.69111 3.17297 7.84637C2.38109 8.37892 1.45893 8.65983 0.499148 8.65983L0.199934 8.65965C0.107744 8.65965 0.0297736 8.71986 0.00628006 8.80931C-0.0168624 8.89742 0.0257654 8.99037 0.10438 9.03618C1.1859 9.66674 2.41953 10 3.67245 10C4.76915 10 5.79503 9.78196 6.72161 9.35197C7.57103 8.95777 8.32166 8.39427 8.95262 7.67713C9.5404 7.00908 10 6.23789 10.3187 5.38501C10.6225 4.57202 10.783 3.70454 10.783 2.87634V2.83689C10.783 2.70391 10.843 2.57878 10.9478 2.4936C11.3452 2.17031 11.6914 1.78974 11.9765 1.36248C12.0517 1.24966 11.933 1.10826 11.8091 1.16331Z" fill="#4D82C1"/>
</svg>
