<svg width="11" height="14" viewBox="0 0 11 14" fill="none" xmlns="http://www.w3.org/2000/svg">
<path d="M5.42362 13L5.28698 12.8405C5.1119 12.6361 1 7.8064 1 5.42362C1 2.98438 2.98441 1 5.42362 1C7.86283 1 9.84724 2.98456 9.84724 5.42362C9.84724 7.8064 5.73519 12.6363 5.56007 12.8405L5.42362 13ZM5.42362 1.35938C3.18269 1.35938 1.35956 3.18251 1.35956 5.42344C1.35956 7.4409 4.70073 11.5735 5.42362 12.4438C6.14651 11.5734 9.48767 7.4409 9.48767 5.42344C9.48749 3.18269 7.66455 1.35938 5.42362 1.35938Z" fill="#99CD68" stroke="#99CD68" stroke-width="0.5" stroke-linejoin="round"/>
<path d="M5.4234 7.24695C4.41808 7.24695 3.6001 6.42897 3.6001 5.42347C3.6001 4.41814 4.41808 3.60016 5.4234 3.60016C6.42891 3.60016 7.24689 4.41814 7.24689 5.42347C7.24689 6.42897 6.42891 7.24695 5.4234 7.24695ZM5.4234 3.95972C4.61621 3.95972 3.95966 4.61627 3.95966 5.42347C3.95966 6.23066 4.61621 6.88739 5.4234 6.88739C6.2306 6.88739 6.88733 6.23084 6.88733 5.42347C6.88736 4.61645 6.23063 3.95972 5.4234 3.95972Z" fill="#99CD68" stroke="#99CD68" stroke-width="0.5" stroke-linejoin="round"/>
</svg>
